<svg width="1186" height="893" viewBox="0 0 1186 893" fill="none" xmlns="http://www.w3.org/2000/svg">
<path d="M220.598 3.80464C53.3762 -28.4864 -45.3135 222.455 -101 169.499L-36 550.312C0.942749 598.891 79.9133 681.271 123.418 718.925C194.392 780.354 366.526 870.592 506.29 882.877C608.878 891.895 948.897 934.986 1106.13 735.024C1354.44 419.232 953.858 183.154 850.626 144.033C545.438 28.3763 339.069 26.6817 220.598 3.80464Z" fill="url(#paint0_linear_2563_5125)"/>
<path d="M207.649 9.29344C48.8662 -20.8009 -6.12354 290.354 -59 241L-35.9996 518.624C-0.921143 563.898 74.0643 640.674 115.374 675.766C182.766 733.017 346.213 817.115 478.924 828.565C576.335 836.97 899.196 877.129 1048.5 690.77C1284.28 396.46 903.906 176.442 805.884 139.982C516.097 32.1936 320.142 30.6143 207.649 9.29344Z" fill="url(#paint1_linear_2563_5125)"/>
<defs>
<linearGradient id="paint0_linear_2563_5125" x1="569.361" y1="-135.998" x2="569.361" y2="907.72" gradientUnits="userSpaceOnUse">
<stop stop-color="#EAECFF" stop-opacity="0.5"/>
<stop offset="1" stop-color="white" stop-opacity="0"/>
</linearGradient>
<linearGradient id="paint1_linear_2563_5125" x1="538.813" y1="-121" x2="538.813" y2="851.717" gradientUnits="userSpaceOnUse">
<stop stop-color="#E4E7FF" stop-opacity="0.43"/>
<stop offset="1" stop-color="white" stop-opacity="0"/>
</linearGradient>
</defs>
</svg>
