<svg width="1255" height="724" viewBox="0 0 1255 724" fill="none" xmlns="http://www.w3.org/2000/svg">
<path d="M1237.55 165.986C1273.57 83.3472 1243.64 8.22919 1224.17 -19H-12V482.363C12.1989 546.474 76.4137 692.849 224.446 717.053C391.097 744.301 503.071 686.366 559.039 630.611C615.008 574.856 693.405 492.222 832.797 442.167C1019.36 375.175 1192.54 269.284 1237.55 165.986Z" fill="url(#paint0_linear_883_1725)"/>
<path d="M1133.79 170.118C1168.28 90.9944 1139.62 19.0711 1120.97 -7H-63V473.04C-39.823 534.424 21.6803 674.574 163.462 697.748C323.076 723.837 430.321 668.367 483.926 614.983C537.531 561.599 612.618 482.48 746.125 434.554C924.808 370.411 1090.67 269.023 1133.79 170.118Z" fill="url(#paint1_linear_883_1725)"/>
<defs>
<linearGradient id="paint0_linear_883_1725" x1="376" y1="248.5" x2="653.642" y2="869.937" gradientUnits="userSpaceOnUse">
<stop stop-color="#EBEDFF" stop-opacity="0.54"/>
<stop offset="0.982341" stop-color="white" stop-opacity="0"/>
</linearGradient>
<linearGradient id="paint1_linear_883_1725" x1="-27.5" y1="-58" x2="543" y2="1128" gradientUnits="userSpaceOnUse">
<stop stop-color="#E4E7FF" stop-opacity="0"/>
<stop offset="0.981112" stop-color="white" stop-opacity="0.71"/>
</linearGradient>
</defs>
</svg>
