<svg width="572" height="666" viewBox="0 0 572 666" fill="none" xmlns="http://www.w3.org/2000/svg">
<g clip-path="url(#clip0_37_300)" filter="url(#filter0_d_37_300)">
<path d="M549.771 242.462H21.7459C17.041 242.457 12.5304 240.585 9.20363 237.258C5.87682 233.932 4.00543 229.421 4 224.716V17.7458C4.00543 13.041 5.87682 8.53045 9.20363 5.20363C12.5304 1.87682 17.041 0.00543256 21.7459 0H549.771C554.476 0.00543256 558.987 1.87682 562.313 5.20363C565.64 8.53045 567.511 13.041 567.517 17.7458V224.716C567.511 229.421 565.64 233.932 562.313 237.258C558.987 240.585 554.476 242.457 549.771 242.462Z" fill="#A09EF6"/>
<path d="M426.624 231.144H105.562C81.6366 231.117 58.6992 221.601 41.7816 204.683C24.8639 187.766 15.3478 164.828 15.3208 140.903V101.569C15.3478 77.6436 24.8639 54.706 41.7815 37.7883C58.6991 20.8706 81.6366 11.3543 105.562 11.3271H465.958C489.883 11.3543 512.821 20.8706 529.738 37.7883C546.656 54.706 556.172 77.6436 556.199 101.569C556.16 135.922 542.496 168.858 518.204 193.149C493.913 217.441 460.977 231.105 426.624 231.144Z" fill="white"/>
<path d="M343.803 70.576H131.577C130.363 70.576 129.199 70.0938 128.341 69.2355C127.482 68.3772 127 67.2131 127 65.9993C127 64.7855 127.482 63.6214 128.341 62.7632C129.199 61.9049 130.363 61.4227 131.577 61.4227H343.803C345.017 61.4227 346.181 61.9049 347.039 62.7632C347.897 63.6214 348.379 64.7855 348.379 65.9993C348.379 67.2131 347.897 68.3772 347.039 69.2355C346.181 70.0938 345.017 70.576 343.803 70.576Z" fill="#E6E6E6"/>
<path d="M451.235 119.406H131.577C130.363 119.406 129.199 118.924 128.341 118.065C127.482 117.207 127 116.043 127 114.829C127 113.615 127.482 112.451 128.341 111.593C129.199 110.735 130.363 110.253 131.577 110.253H451.235C452.449 110.253 453.613 110.735 454.471 111.593C455.33 112.451 455.812 113.615 455.812 114.829C455.812 116.043 455.33 117.207 454.471 118.065C453.613 118.924 452.449 119.406 451.235 119.406Z" fill="#E6E6E6"/>
<path d="M451.235 168.236H131.577C130.363 168.236 129.199 167.754 128.341 166.895C127.482 166.037 127 164.873 127 163.659C127 162.445 127.482 161.281 128.341 160.423C129.199 159.565 130.363 159.083 131.577 159.083H451.235C452.449 159.083 453.613 159.565 454.471 160.423C455.33 161.281 455.812 162.445 455.812 163.659C455.812 164.873 455.33 166.037 454.471 166.895C453.613 167.754 452.449 168.236 451.235 168.236Z" fill="#E6E6E6"/>
<path d="M451.235 168.236H131.577C130.363 168.236 129.199 167.754 128.341 166.895C127.482 166.037 127 164.873 127 163.659C127 162.445 127.482 161.281 128.341 160.423C129.199 159.565 130.363 159.083 131.577 159.083H451.235C452.449 159.083 453.613 159.565 454.471 160.423C455.33 161.281 455.812 162.445 455.812 163.659C455.812 164.873 455.33 166.037 454.471 166.895C453.613 167.754 452.449 168.236 451.235 168.236Z" fill="#E6E6E6"/>
<path d="M321.407 125.01C321.458 126.389 321.811 127.74 322.44 128.967C323.069 130.195 323.96 131.269 325.05 132.116C326.139 132.962 327.401 133.558 328.746 133.864C330.092 134.17 331.487 134.177 332.836 133.884L350.289 162.517L357.718 146.754L340.005 121.981C339.364 119.748 337.926 117.829 335.964 116.585C334.002 115.342 331.653 114.862 329.36 115.235C327.068 115.609 324.992 116.81 323.526 118.612C322.061 120.413 321.307 122.69 321.407 125.01Z" fill="#FFB6B6"/>
<path d="M452.385 207.07L392.237 174.444L373.265 156.645C373.265 156.645 365.017 154.436 368.053 151.755C371.088 149.073 362.438 146.486 362.438 146.486L352.253 136.931L337.781 147.171L341.969 153.664C341.969 153.664 341.681 164.412 347.569 162.344C353.457 160.276 351.986 169.191 351.986 169.191L387.13 223.669L452.385 207.07Z" fill="#3F3D56"/>
<path d="M274.834 176.332C307.281 176.332 333.584 150.028 333.584 117.581C333.584 85.1338 307.281 58.8303 274.834 58.8303C242.387 58.8303 216.083 85.1338 216.083 117.581C216.083 150.028 242.387 176.332 274.834 176.332Z" fill="#6C63FF"/>
<path d="M452.571 634.997H440.355L434.542 587.879H452.571V634.997Z" fill="#FFB6B6"/>
<path d="M459.019 656.163H450.259L448.695 647.892L444.69 656.163H421.456C420.342 656.163 419.257 655.807 418.36 655.147C417.463 654.487 416.801 653.558 416.469 652.494C416.138 651.431 416.155 650.29 416.518 649.237C416.881 648.184 417.571 647.275 418.488 646.642L437.042 633.828V625.466L456.559 626.631L459.019 656.163Z" fill="#2F2E41"/>
<path d="M354.87 634.997H342.654L336.841 587.879H354.87V634.997Z" fill="#FFB6B6"/>
<path d="M361.317 656.163H352.557L350.993 647.892L346.988 656.163H323.754C322.64 656.163 321.555 655.807 320.658 655.147C319.761 654.487 319.098 653.558 318.767 652.494C318.435 651.431 318.453 650.29 318.816 649.237C319.179 648.184 319.869 647.275 320.786 646.642L339.34 633.828V625.466L358.857 626.631L361.317 656.163Z" fill="#2F2E41"/>
<path d="M439.61 278.648H377.954V348.842H439.61V278.648Z" fill="#FFB6B6"/>
<path d="M379.376 313.271L368.942 325.602L350.919 363.544L305.507 471.595L295.903 494.446L303.659 534.842C303.659 534.842 304.914 563.301 304.914 567.96C304.914 577.445 312.848 582.701 312.848 582.701L318.668 613.016L375.108 610.645C375.108 610.645 373.139 577.229 361.318 568.8C349.497 560.371 344.063 516.442 344.063 516.442L337.64 496.952L400.245 422.74L400.649 448.681L400.844 461.237C400.844 461.237 391.676 542.902 402.363 558.751C413.05 574.6 402.581 572.735 402.581 572.735L403.09 605.428L469.964 605.902L455.211 511.778C455.211 511.778 447.719 505.863 451.728 499.918C455.736 493.972 447.843 486.69 447.843 486.69L451.383 413.21C451.383 413.21 447.463 400.518 452.074 398.868C456.684 397.218 452.679 386.304 452.679 386.304L453.364 372.081L439.61 327.973L379.376 313.271Z" fill="#2F2E41"/>
<path d="M440.558 278.648L447.198 258.728L451.941 252.088L453.838 233.117C453.838 181.895 442.413 190.424 442.413 190.424L435.815 172.409L405.461 171.46L386.016 189.957L369.89 195.649L363.576 228.46L375.107 263.471L377.953 282.442C372.525 292.464 372.984 287.724 377.479 295.248L431.073 309.951C450.044 316.59 450.044 299.516 446.24 295.248C442.436 290.979 440.558 278.648 440.558 278.648Z" fill="#3F3D56"/>
<path d="M416.717 165.093C432.258 165.093 444.857 152.494 444.857 136.954C444.857 121.413 432.258 108.814 416.717 108.814C401.177 108.814 388.578 121.413 388.578 136.954C388.578 152.494 401.177 165.093 416.717 165.093Z" fill="#FFB6B6"/>
<path d="M454.284 174.515C454.549 174.962 454.71 175.463 454.755 175.982C454.799 176.5 454.726 177.021 454.541 177.507C454.356 177.993 454.064 178.431 453.686 178.788C453.308 179.145 452.854 179.413 452.359 179.571C448.584 180.823 446.26 184.475 443.547 187.396C440.843 190.308 436.489 192.727 433.037 190.745C429.593 188.772 429.356 183.735 426.473 181.003C423.665 178.347 418.998 178.669 415.697 180.69L415.598 180.751C415.028 181.122 414.362 181.318 413.682 181.315C413.002 181.312 412.337 181.11 411.771 180.733C411.205 180.356 410.761 179.822 410.495 179.196C410.229 178.57 410.153 177.88 410.275 177.211C411.432 171.059 412.587 164.909 413.743 158.759C410.707 166.073 406.299 172.738 400.757 178.394C399.23 180.156 397.296 181.517 395.122 182.359C393.15 182.985 391.233 180.946 389.317 181.316C394.079 177.152 410.091 150.459 407.226 132.617C403.859 132.996 400.491 133.375 397.124 133.755C396.76 132.161 395.981 130.692 394.866 129.496C395.003 131.047 394.805 132.609 394.288 134.077C392.884 134.239 391.471 134.39 390.067 134.552C388.113 134.77 385.988 134.96 384.309 133.935C381.511 132.228 381.425 128.187 382.222 125C384.556 115.732 391.632 107.982 400.292 103.923C408.953 99.8722 411.514 108.893 420.639 106.009C438.661 100.318 452.473 110.05 457.339 128.111C461.427 143.26 458.458 159.338 454.284 174.515Z" fill="#2F2E41"/>
<path d="M532.186 656.775H497.73L497.582 656.506C497.142 655.707 496.716 654.861 496.319 653.991C492.77 646.392 491.27 637.702 489.946 630.035L488.949 624.256C488.829 623.556 488.92 622.836 489.21 622.188C489.501 621.54 489.979 620.993 490.582 620.618C491.186 620.243 491.887 620.057 492.597 620.083C493.306 620.109 493.992 620.347 494.566 620.765C499.803 624.575 505.041 628.382 510.282 632.184C512.266 633.628 514.532 635.299 516.702 637.105C516.912 636.088 517.131 635.068 517.35 634.062C517.501 633.368 517.856 632.734 518.369 632.242C518.882 631.751 519.53 631.424 520.231 631.302C520.931 631.181 521.651 631.272 522.3 631.563C522.948 631.854 523.495 632.331 523.871 632.935L527.902 639.412C530.843 644.142 533.438 648.803 532.909 653.83C532.911 653.891 532.907 653.952 532.895 654.012C532.789 654.838 532.593 655.649 532.31 656.432L532.186 656.775Z" fill="#F0F0F0"/>
<path d="M566.771 657.52L239.349 657.839C239.022 657.838 238.71 657.707 238.479 657.475C238.249 657.243 238.119 656.93 238.119 656.603C238.119 656.276 238.249 655.963 238.479 655.731C238.71 655.5 239.022 655.369 239.349 655.367L566.771 655.048C567.097 655.049 567.41 655.18 567.641 655.412C567.871 655.644 568.001 655.957 568.001 656.284C568.001 656.611 567.871 656.924 567.641 657.156C567.41 657.388 567.097 657.519 566.771 657.52Z" fill="#CACACA"/>
<path d="M269.493 196.655L233.478 166.241C232.247 165.199 231.48 163.711 231.344 162.104C231.209 160.497 231.716 158.902 232.756 157.668L239.384 149.819C240.426 148.588 241.914 147.82 243.521 147.685C245.128 147.55 246.723 148.057 247.957 149.096L283.972 179.511C285.203 180.553 285.97 182.04 286.106 183.647C286.241 185.255 285.733 186.85 284.694 188.083L278.066 195.932C277.024 197.163 275.536 197.931 273.929 198.066C272.322 198.202 270.727 197.694 269.493 196.655Z" fill="#3F3D56"/>
<path d="M235.368 158.301C234.808 158.966 234.535 159.825 234.608 160.691C234.681 161.557 235.094 162.359 235.758 162.921L271.773 193.335C272.437 193.895 273.297 194.168 274.163 194.095C275.029 194.022 275.831 193.609 276.392 192.946L283.021 185.096C283.581 184.432 283.854 183.572 283.781 182.706C283.708 181.84 283.295 181.038 282.631 180.477L246.616 150.062C245.952 149.502 245.092 149.229 244.226 149.302C243.36 149.375 242.558 149.788 241.997 150.452L235.368 158.301Z" fill="white"/>
<path d="M256.511 170.124C256.386 170.299 256.222 170.443 256.032 170.543C255.842 170.644 255.631 170.699 255.416 170.703L249.758 170.833C249.576 170.838 249.395 170.806 249.226 170.74C249.056 170.674 248.901 170.576 248.77 170.45C248.638 170.325 248.533 170.175 248.459 170.008C248.386 169.842 248.346 169.663 248.342 169.481C248.338 169.299 248.369 169.118 248.435 168.949C248.501 168.779 248.599 168.624 248.725 168.493C248.85 168.361 249.001 168.256 249.167 168.182C249.333 168.109 249.512 168.069 249.694 168.065L253.396 167.98L249.75 158.36C249.621 158.017 249.634 157.636 249.785 157.302C249.936 156.968 250.213 156.707 250.556 156.577C250.899 156.447 251.279 156.459 251.614 156.609C251.948 156.759 252.209 157.036 252.34 157.378L256.68 168.828C256.758 169.036 256.786 169.258 256.76 169.478C256.735 169.698 256.657 169.909 256.533 170.093L256.511 170.124Z" fill="#6C63FF"/>
<path d="M257.237 172.542C258.602 172.742 259.906 173.24 261.058 173.999C262.21 174.758 263.182 175.76 263.904 176.935C264.627 178.111 265.083 179.43 265.24 180.8C265.398 182.171 265.253 183.559 264.816 184.868L291.381 205.331L274.904 211.001L252.203 190.7C250.054 189.82 248.302 188.182 247.28 186.096C246.257 184.011 246.035 181.623 246.655 179.385C247.276 177.147 248.696 175.214 250.646 173.953C252.596 172.692 254.942 172.19 257.237 172.542Z" fill="#FFB6B6"/>
<path d="M395.541 182.66L327.526 224.479C327.526 224.479 300.103 214.332 305.462 209.635C310.822 204.938 293.76 201.762 293.76 201.762L274.913 189.082L263.976 201.793C263.976 201.793 265.968 222.438 269.359 218.864C272.75 215.289 277.818 225.054 277.818 225.054C277.818 225.054 279.316 235.959 288.968 233.215C298.62 230.47 324.52 259.234 324.52 259.234L408.227 228.014L395.541 182.66Z" fill="#3F3D56"/>
<path d="M272.768 141.148C271.979 141.148 271.202 140.965 270.497 140.612C269.791 140.259 269.178 139.747 268.705 139.116L256.248 122.507C255.848 121.973 255.557 121.366 255.391 120.72C255.226 120.074 255.189 119.401 255.283 118.741C255.378 118.081 255.601 117.445 255.941 116.872C256.281 116.298 256.731 115.796 257.264 115.396C258.342 114.588 259.696 114.241 261.03 114.431C261.69 114.526 262.325 114.749 262.899 115.089C263.473 115.429 263.975 115.879 264.375 116.412L272.524 127.278L293.456 95.8808C294.203 94.76 295.365 93.9819 296.686 93.7177C298.007 93.4535 299.379 93.7248 300.5 94.4721C301.62 95.2193 302.398 96.3812 302.663 97.7021C302.927 99.0231 302.655 100.395 301.908 101.516L276.994 138.886C276.544 139.562 275.938 140.12 275.227 140.513C274.516 140.907 273.721 141.124 272.909 141.147C272.862 141.147 272.815 141.148 272.768 141.148Z" fill="white"/>
</g>
<defs>
<filter id="filter0_d_37_300" x="0" y="0" width="572" height="665.839" filterUnits="userSpaceOnUse" color-interpolation-filters="sRGB">
<feFlood flood-opacity="0" result="BackgroundImageFix"/>
<feColorMatrix in="SourceAlpha" type="matrix" values="0 0 0 0 0 0 0 0 0 0 0 0 0 0 0 0 0 0 127 0" result="hardAlpha"/>
<feOffset dy="4"/>
<feGaussianBlur stdDeviation="2"/>
<feComposite in2="hardAlpha" operator="out"/>
<feColorMatrix type="matrix" values="0 0 0 0 0 0 0 0 0 0 0 0 0 0 0 0 0 0 0.25 0"/>
<feBlend mode="normal" in2="BackgroundImageFix" result="effect1_dropShadow_37_300"/>
<feBlend mode="normal" in="SourceGraphic" in2="effect1_dropShadow_37_300" result="shape"/>
</filter>
<clipPath id="clip0_37_300">
<rect width="564" height="657.839" fill="white" transform="translate(4)"/>
</clipPath>
</defs>
</svg>
