<svg width="733" height="439" viewBox="0 0 733 439" fill="none" xmlns="http://www.w3.org/2000/svg">
<g clip-path="url(#clip0_37_199)">
<path d="M561.202 433.276C551.818 425.346 546.117 412.82 547.612 400.625C549.107 388.43 558.366 377.22 570.376 374.63C582.386 372.04 596.077 379.209 599.724 390.941C601.732 368.322 604.045 344.755 616.071 325.493C626.96 308.052 645.82 295.572 666.259 293.339C686.699 291.107 708.22 299.539 720.967 315.672C733.715 331.805 736.836 355.259 727.908 373.781C721.331 387.425 709.214 397.579 696.518 405.84C655.494 432.31 606.29 443.074 557.961 436.152L561.202 433.276Z" fill="#F2F2F2"/>
<path d="M700.755 300.007C683.89 313.744 668.417 329.107 654.562 345.876C632.879 372.028 615.332 401.35 602.534 432.82C601.597 435.116 605.325 436.115 606.252 433.845C627.192 382.7 660.621 337.622 703.481 302.733C705.406 301.165 702.664 298.452 700.755 300.007Z" fill="white"/>
<path d="M235.965 431.121C248.854 420.23 256.683 403.025 254.63 386.275C252.577 369.526 239.86 354.128 223.364 350.571C206.868 347.014 188.064 356.86 183.054 372.974C180.297 341.907 177.119 309.538 160.602 283.082C145.646 259.126 119.742 241.985 91.6681 238.918C63.5941 235.852 34.0358 247.434 16.5271 269.592C-0.981627 291.751 -5.26856 323.965 6.99409 349.404C16.0276 368.145 32.6704 382.092 50.1079 393.438C105.74 429.638 174.751 444.735 240.416 435.072" fill="#F2F2F2"/>
<path d="M44.289 248.076C67.4535 266.944 88.7045 288.046 107.735 311.077C126.768 334.085 143.524 358.885 157.769 385.128C165.731 399.849 172.884 414.994 179.195 430.495C180.482 433.648 175.361 435.021 174.089 431.902C162.91 404.574 149.081 378.408 132.797 353.777C116.594 329.236 98.0472 306.325 77.4191 285.365C65.7518 273.516 53.4417 262.318 40.5448 251.82C37.9013 249.668 41.6673 245.941 44.289 248.076Z" fill="white"/>
<path d="M526.159 437.272H218.636V121.745C218.636 54.6146 273.251 0 340.381 0H404.414C471.545 0 526.159 54.6146 526.159 121.745V437.272Z" fill="#F2F2F2"/>
<path d="M462.127 437.272H218.636V121.745C218.569 96.0225 226.714 70.9496 241.886 50.1774C242.446 49.4151 243.004 48.6626 243.579 47.9184C250.917 38.2934 259.651 29.8168 269.49 22.7685C270.046 22.364 270.604 21.9667 271.17 21.5692C279.404 15.8716 288.31 11.2138 297.686 7.70207C298.243 7.49102 298.81 7.27956 299.377 7.07674C307.857 4.05044 316.648 1.97744 325.587 0.896015C326.141 0.820314 326.71 0.761077 327.279 0.701839C335.99 -0.229552 344.775 -0.229552 353.486 0.701839C354.053 0.761077 354.622 0.820307 355.183 0.896825C364.12 1.97832 372.908 4.05107 381.386 7.07678C381.953 7.2796 382.52 7.49105 383.078 7.70251C392.339 11.17 401.141 15.7582 409.287 21.3648C409.852 21.7536 410.419 22.151 410.977 22.5484C416.492 26.4853 421.673 30.8713 426.466 35.6615C430.309 39.5038 433.891 43.5994 437.186 47.9209C437.76 48.6627 438.318 49.4151 438.876 50.1762C454.048 70.9486 462.194 96.0219 462.127 121.745V437.272Z" fill="#CCCCCC"/>
<path d="M442.328 296.149C449.773 296.149 455.808 290.114 455.808 282.668C455.808 275.223 449.773 269.188 442.328 269.188C434.883 269.188 428.847 275.223 428.847 282.668C428.847 290.114 434.883 296.149 442.328 296.149Z" fill="#6C63FF"/>
<path d="M500.967 427.822H490.637L485.723 387.98L500.968 387.981L500.967 427.822Z" fill="#FFB8B8"/>
<path d="M483.259 424.87H503.18V437.413H470.716C470.716 435.766 471.041 434.135 471.671 432.613C472.302 431.091 473.225 429.709 474.39 428.544C475.555 427.379 476.937 426.455 478.459 425.825C479.981 425.195 481.612 424.87 483.259 424.87Z" fill="#2F2E41"/>
<path d="M552.361 427.822H542.032L537.117 387.98L552.363 387.981L552.361 427.822Z" fill="#FFB8B8"/>
<path d="M534.653 424.87H554.574V437.413H522.111C522.111 435.766 522.435 434.135 523.066 432.613C523.696 431.091 524.62 429.709 525.784 428.544C526.949 427.379 528.332 426.455 529.854 425.825C531.375 425.195 533.006 424.87 534.653 424.87Z" fill="#2F2E41"/>
<path d="M449.15 285.339C448.407 284.244 447.913 283 447.703 281.693C447.493 280.387 447.572 279.05 447.934 277.778C448.296 276.505 448.933 275.327 449.8 274.327C450.667 273.328 451.742 272.53 452.95 271.991L488.063 175.212L505.341 184.641L465.25 277.126C466.021 279.216 465.999 281.516 465.188 283.591C464.376 285.666 462.832 287.371 460.848 288.383C458.863 289.396 456.576 289.645 454.42 289.084C452.264 288.523 450.389 287.19 449.15 285.339Z" fill="#FFB8B8"/>
<path d="M547.085 303.524C545.937 302.866 544.947 301.964 544.185 300.882C543.424 299.8 542.909 298.564 542.676 297.262C542.444 295.959 542.5 294.621 542.84 293.343C543.181 292.064 543.798 290.876 544.647 289.861L533.77 187.486L553.432 188.384L557.953 289.084C559.563 290.624 560.551 292.701 560.732 294.921C560.913 297.142 560.272 299.351 558.933 301.131C557.593 302.911 555.647 304.138 553.463 304.579C551.28 305.02 549.01 304.645 547.085 303.524Z" fill="#FFB8B8"/>
<path d="M515.717 157.286C527.145 157.286 536.41 148.022 536.41 136.593C536.41 125.164 527.145 115.9 515.717 115.9C504.288 115.9 495.023 125.164 495.023 136.593C495.023 148.022 504.288 157.286 515.717 157.286Z" fill="#FFB8B8"/>
<path d="M546.952 280.241H484.566L484.641 279.755C484.753 279.03 495.76 206.928 487.642 183.34C486.827 181.022 486.899 178.484 487.843 176.216C488.787 173.947 490.537 172.108 492.755 171.053C504.358 165.589 526.632 158.86 545.431 175.189C548.197 177.631 550.357 180.684 551.74 184.105C553.124 187.526 553.692 191.222 553.4 194.901L546.952 280.241Z" fill="#6C63FF"/>
<path d="M496.548 217.583L468.461 211.885L481.626 180.687C482.414 177.665 484.369 175.079 487.06 173.496C489.752 171.913 492.962 171.463 495.986 172.243C499.01 173.024 501.6 174.972 503.189 177.66C504.779 180.348 505.237 183.557 504.464 186.582L496.548 217.583Z" fill="#6C63FF"/>
<path d="M532.521 228.164L530.832 189.457C529.552 182.18 533.717 175.302 540.123 174.178C546.531 173.057 552.788 178.104 554.074 185.434L560.421 221.602L532.521 228.164Z" fill="#6C63FF"/>
<path d="M544.877 275.607C554.915 313.838 556.01 362.446 553.302 415.467L539.822 413.782L515.388 312.678L501.908 415.467L486.742 414.624C482.212 358.992 477.8 311.233 485.057 279.819L544.877 275.607Z" fill="#2F2E41"/>
<path d="M529.352 152.585C525.491 156.698 518.322 154.49 517.819 148.872C517.779 148.436 517.782 147.997 517.827 147.561C518.087 145.073 519.525 142.814 519.18 140.186C519.102 139.532 518.859 138.909 518.473 138.376C515.396 134.256 508.175 140.218 505.272 136.489C503.491 134.202 505.584 130.602 504.218 128.047C502.415 124.673 497.074 126.337 493.725 124.49C489.999 122.435 490.222 116.718 492.675 113.24C495.666 108.999 500.911 106.736 506.091 106.41C511.27 106.084 516.414 107.484 521.25 109.368C526.744 111.51 532.192 114.469 535.573 119.3C539.685 125.175 540.081 133.073 538.024 139.943C536.773 144.122 532.504 149.227 529.352 152.585Z" fill="#2F2E41"/>
<path d="M707.709 437.815H85.6747C85.4092 437.814 85.1548 437.708 84.9672 437.52C84.7797 437.332 84.6744 437.077 84.6744 436.811C84.6744 436.546 84.7797 436.291 84.9672 436.103C85.1548 435.915 85.4092 435.809 85.6747 435.808H707.709C707.974 435.809 708.229 435.915 708.416 436.103C708.604 436.291 708.709 436.546 708.709 436.811C708.709 437.077 708.604 437.332 708.416 437.52C708.229 437.708 707.974 437.814 707.709 437.815Z" fill="#3F3D56"/>
<path d="M395.146 345.858H285.617C284.175 345.866 282.788 345.301 281.762 344.288C280.735 343.275 280.152 341.895 280.141 340.453V95.9769C280.152 94.5344 280.735 93.1553 281.762 92.142C282.788 91.1287 284.175 90.564 285.617 90.5718H395.146C396.589 90.564 397.975 91.1287 399.002 92.142C400.029 93.1553 400.611 94.5344 400.622 95.9769V340.453C400.611 341.895 400.029 343.275 399.002 344.288C397.975 345.301 396.589 345.866 395.146 345.858Z" fill="white"/>
<path d="M400.622 169.677H280.141V171.362H400.622V169.677Z" fill="#CCCCCC"/>
<path d="M401.044 265.818H280.562V267.503H401.044V265.818Z" fill="#CCCCCC"/>
<path d="M319.74 90.5718H318.055V346.701H319.74V90.5718Z" fill="#CCCCCC"/>
<path d="M361.866 90.5718H360.181V346.701H361.866V90.5718Z" fill="#CCCCCC"/>
</g>
<defs>
<clipPath id="clip0_37_199">
<rect width="733" height="438.232" fill="white"/>
</clipPath>
</defs>
</svg>
