<svg width="577" height="500" viewBox="0 0 577 500" fill="none" xmlns="http://www.w3.org/2000/svg">
<path d="M191.46 87.8041C214.357 87.8041 232.919 69.3473 232.919 46.5798C232.919 23.8122 214.357 5.35547 191.46 5.35547C168.562 5.35547 150 23.8122 150 46.5798C150 69.3473 168.562 87.8041 191.46 87.8041Z" fill="#FFCDB3"/>
<path d="M191.459 82.4486C214.357 82.4486 232.919 63.9919 232.919 41.2243C232.919 18.4568 214.357 0 191.459 0C168.562 0 150 18.4568 150 41.2243C150 63.9919 168.562 82.4486 191.459 82.4486Z" fill="#EF452F"/>
<path d="M191.459 74.7821C210.08 74.7821 225.209 59.7388 225.209 41.224C225.209 22.7093 210.08 7.66602 191.459 7.66602C172.839 7.66602 157.71 22.7093 157.71 41.224C157.71 59.7388 172.839 74.7821 191.459 74.7821Z" fill="white"/>
<path d="M157.71 41.2221C157.71 42.09 157.71 42.9578 157.855 43.8257C159.165 26.6128 173.857 12.8713 191.459 12.8713C209.207 12.8713 223.754 26.4681 225.064 43.8257C225.064 42.9578 225.209 42.09 225.209 41.2221C225.209 22.7073 210.08 7.66406 191.459 7.66406C172.839 7.66406 157.71 22.7073 157.71 41.2221Z" fill="#FFDECB"/>
<path d="M191.464 44.6921C191.755 44.6921 192.046 44.5475 192.191 44.4028L208.775 22.2719C209.066 21.838 208.92 21.404 208.629 21.1147C208.193 20.8254 207.757 20.9701 207.466 21.2594L191.318 42.9564L172.843 34.8562C172.407 34.7115 171.97 34.8562 171.68 35.2901C171.534 35.724 171.68 36.158 172.116 36.4473L191.027 44.6921C191.173 44.6921 191.318 44.6921 191.464 44.6921Z" fill="#35252F"/>
<path opacity="0.1" d="M288.056 499.123C447.144 499.123 576.111 487.231 576.111 472.562C576.111 457.892 447.144 446 288.056 446C128.967 446 0 457.892 0 472.562C0 487.231 128.967 499.123 288.056 499.123Z" fill="#605BFF"/>
<path d="M224.885 263.794C225.11 263.789 279.823 263.903 279.931 263.903C287.606 263.903 290.571 268.35 290.571 268.35V270.748H215.766V268.35C219.145 266.059 222.22 263.728 224.885 263.794Z" fill="#DEE8F5"/>
<path d="M235.308 268.94C235.308 268.94 231.361 263.274 224.885 263.793C223.128 263.859 221.405 264.299 219.832 265.085C218.26 265.871 216.873 266.984 215.766 268.349V270.747H256.486V268.349C256.486 268.349 253.521 263.903 245.842 263.903C238.163 263.903 235.308 268.94 235.308 268.94Z" fill="#C1D8ED"/>
<path d="M256.486 268.35H290.571V270.746H256.486V268.35Z" fill="#C1D8ED"/>
<path d="M378.34 343.912L414.146 480.035L409.041 481.378L373.236 345.255L378.34 343.912Z" fill="#C1D8ED"/>
<path d="M314.89 344.173L320.104 344.99L298.761 481.115L293.547 480.297L314.89 344.173Z" fill="#C1D8ED"/>
<path d="M383.132 214.007C383.132 214.007 426.734 211.253 426.734 249.349C426.734 287.445 420.313 340.684 388.181 346.651C356.049 352.618 308.584 350.821 297.56 348.95C284.021 346.655 278.119 315.248 296.153 313.146C347.333 307.179 322.544 218.139 383.132 214.007Z" fill="#C1D8ED"/>
<path d="M299.78 454.361L301.438 475.877L283.019 477.297L281.36 455.781L299.78 454.361Z" fill="#E98862"/>
<path d="M259.615 480.543C259.141 480.541 258.671 480.445 258.234 480.262C257.796 480.078 257.399 479.81 257.065 479.473C256.731 479.136 256.467 478.737 256.287 478.298C256.108 477.859 256.017 477.389 256.019 476.914C256.019 476.826 256.019 476.738 256.029 476.65C256.083 475.964 256.332 475.307 256.746 474.757C257.16 474.207 257.723 473.787 258.367 473.546L279.87 466.344C280.287 466.206 280.728 466.16 281.164 466.208C281.6 466.257 282.021 466.399 282.397 466.625C285.353 468.676 288.889 469.724 292.485 469.616C295.286 469.417 297.974 468.434 300.244 466.78C300.443 466.616 300.685 466.513 300.941 466.481C301.198 466.45 301.457 466.492 301.69 466.603C301.924 466.713 302.12 466.888 302.258 467.106C302.396 467.325 302.468 467.578 302.468 467.836V478.35C302.468 478.975 302.22 479.574 301.778 480.016C301.336 480.457 300.737 480.706 300.112 480.706H300.102L259.615 480.543Z" fill="#C1D8ED"/>
<path d="M208.183 453.537L226.4 456.602L222.781 478.119L204.563 475.054L208.183 453.537Z" fill="#E98862"/>
<path d="M198.769 458.248L239.324 302.203C240.23 298.716 242.268 295.629 245.117 293.425C247.967 291.221 251.468 290.024 255.07 290.023H343.966V290.081H393.765V305.338C393.765 309.738 392.898 314.095 391.215 318.16C389.531 322.225 387.063 325.919 383.952 329.03C380.841 332.141 377.147 334.609 373.082 336.293C369.017 337.977 364.66 338.843 360.26 338.843H335.972V338.94H293.57L305.246 463.082L272.839 466.129L261.55 346.089L230.268 466.436L198.769 458.248Z" fill="#262626"/>
<path d="M266.494 215.498C266.494 215.498 266.362 204.932 258.81 205.482C254.046 205.828 231.406 204.778 231.069 206.84C230.236 211.942 250.944 213.19 252.823 217.944L266.494 215.498Z" fill="#E98862"/>
<path d="M261.484 205.821C261.484 205.821 250.973 202.39 248.389 203.006C246.102 203.55 250.87 207.273 250.87 207.273L261.484 205.821Z" fill="#E98862"/>
<path d="M288.206 261.861L250.702 218.198L266.865 209.109L296.897 242.896L320.385 200.854C322.607 194.21 327.669 189.758 337.996 189.313C338.55 189.295 339.439 189.269 340.583 189.251C340.811 194.089 370.783 194.072 371.416 189.137C379.879 189.146 386.828 191.749 390.84 195.761C404.695 209.616 387.691 233.227 387.691 251.701C387.691 270.175 396.048 278.462 395.432 287.945C394.464 302.847 322.038 299.328 318.353 290.856C315.881 285.181 318.276 280.916 320.161 270.767H288.207L288.206 261.861ZM321.923 248.182C321.887 245.074 321.647 241.822 321.317 238.513L314.016 251.585H321.921C321.932 250.485 321.936 249.361 321.921 248.183L321.923 248.182Z" fill="#367CFF"/>
<path d="M340.578 189.251C340.806 194.089 343.445 201.206 351.556 201.734C362.385 202.454 370.778 194.072 371.411 189.137H371.376C360.736 189.137 346.802 189.154 340.578 189.251Z" fill="#E98862"/>
<path d="M183.692 480.541C183.218 480.539 182.748 480.443 182.311 480.259C181.873 480.076 181.476 479.808 181.142 479.47C180.808 479.133 180.544 478.734 180.364 478.294C180.185 477.855 180.094 477.385 180.096 476.91C180.096 476.822 180.096 476.734 180.106 476.646C180.16 475.96 180.409 475.303 180.823 474.753C181.238 474.203 181.801 473.783 182.446 473.542L203.947 466.34C204.364 466.202 204.805 466.156 205.242 466.204C205.678 466.253 206.098 466.395 206.475 466.621C209.43 468.672 212.966 469.72 216.562 469.612C219.363 469.413 222.052 468.43 224.322 466.776C224.522 466.613 224.763 466.51 225.019 466.479C225.275 466.448 225.534 466.49 225.767 466.601C226 466.711 226.197 466.886 226.334 467.104C226.472 467.321 226.545 467.574 226.545 467.832V478.346C226.545 478.97 226.298 479.569 225.857 480.012C225.416 480.454 224.817 480.703 224.193 480.703H224.183L183.692 480.541Z" fill="#C1D8ED"/>
<path d="M435.903 279.295H444.164V480.708H435.903V279.295Z" fill="#FFD66B"/>
<path d="M37.4214 279.295H45.6826V480.708H37.4214V279.295Z" fill="#FF8F6B"/>
<path d="M37.4215 276.77H111.928V466.935H37.4215V276.77Z" fill="#FFD66B"/>
<path d="M118.54 453.164H126.802V480.708H118.54V453.164Z" fill="#FF8F6B"/>
<path d="M26 270.977H455.586V282.336H26V270.977Z" fill="#FFD66B"/>
<path d="M107.797 279.295H116.059V480.708H107.797V279.295Z" fill="#FFD66B"/>
<path d="M188.916 279.295H197.178V480.708H188.916V279.295Z" fill="#FFD66B"/>
<path d="M111.928 282.352H193.048V466.936H111.928V282.352Z" fill="#FFC93E"/>
<path d="M193.619 220.131L204.3 264.971C204.466 265.668 204.472 266.394 204.317 267.095C204.162 267.795 203.851 268.451 203.406 269.014C202.962 269.576 202.396 270.031 201.751 270.344C201.105 270.657 200.398 270.819 199.681 270.82H136.708C135.668 270.82 134.656 270.478 133.829 269.847C133.001 269.216 132.404 268.331 132.128 267.328L119.821 222.489C119.627 221.784 119.599 221.044 119.739 220.327C119.878 219.609 120.181 218.934 120.624 218.353C121.067 217.771 121.639 217.3 122.293 216.976C122.948 216.652 123.669 216.483 124.4 216.482H188.998C190.067 216.483 191.103 216.843 191.942 217.505C192.78 218.166 193.371 219.092 193.619 220.131Z" fill="#26C0E2"/>
<path d="M226.718 270.819H150.608C149.868 270.819 149.158 270.525 148.634 270.002C148.111 269.479 147.817 268.769 147.817 268.029C147.817 267.289 148.111 266.579 148.634 266.056C149.158 265.532 149.868 265.238 150.608 265.238H226.718C227.085 265.238 227.448 265.31 227.786 265.451C228.125 265.591 228.432 265.796 228.692 266.056C228.951 266.315 229.156 266.622 229.296 266.961C229.437 267.299 229.509 267.662 229.509 268.029C229.509 268.395 229.437 268.758 229.296 269.097C229.156 269.435 228.951 269.743 228.692 270.002C228.432 270.261 228.125 270.466 227.786 270.607C227.448 270.747 227.085 270.819 226.718 270.819Z" fill="#26C0E2"/>
<path d="M159.482 250.657C155.369 250.657 152.035 247.322 152.035 243.209C152.035 239.096 155.369 235.762 159.482 235.762C163.595 235.762 166.93 239.096 166.93 243.209C166.93 247.322 163.595 250.657 159.482 250.657Z" fill="white"/>
<path d="M275.216 266.159C276.931 267.505 284.356 267.928 288.209 268.06V253.782C286.247 252.726 283.802 251.363 281.981 250.202C279.456 248.583 278.312 248.117 277.679 248.293H277.67C277.52 248.336 277.386 248.422 277.283 248.539C277.198 248.634 277.132 248.744 277.09 248.865C276.676 249.982 278.567 251.662 279.614 252.489L279.623 252.498C280.001 252.797 280.274 252.99 280.274 252.99L278.04 254.02L278.031 254.028L276.078 254.934L276.052 254.943L274.996 255.427C274.996 255.427 274.811 256.201 274.609 257.336V257.345C274.136 260.063 273.564 264.866 275.216 266.159Z" fill="#E98862"/>
<path d="M262.543 266.18L267.082 264.632L280.454 251.685L282.269 249.921L285.513 246.784L282.476 243.654L279.203 246.824L277.383 248.581L264.052 261.496L262.543 266.18Z" fill="#0CBC8B"/>
<path d="M277.384 248.581L280.455 251.685L282.27 249.922L279.204 246.824L277.384 248.581Z" fill="white"/>
<path d="M278.927 252.709C277.776 252.73 276.628 252.825 275.489 252.994C274.316 253.146 273.159 253.407 272.034 253.772C271.409 253.971 270.804 254.228 270.227 254.541C269.904 254.718 269.596 254.922 269.305 255.148L268.658 255.708C267.807 256.475 267.03 257.32 266.337 258.234C266.148 258.485 266.054 258.795 266.072 259.109C266.09 259.423 266.218 259.721 266.434 259.949C266.65 260.178 266.94 260.322 267.253 260.358C267.565 260.393 267.88 260.316 268.142 260.142L268.203 260.1L270.754 258.39L271.393 257.97C271.541 257.886 271.694 257.811 271.851 257.745C272.243 257.587 272.648 257.463 273.062 257.377C274.015 257.178 274.979 257.039 275.95 256.962C276.942 256.885 278 256.826 278.956 256.809H279.001C279.27 256.805 279.535 256.747 279.782 256.639C280.029 256.532 280.253 256.377 280.439 256.183C280.626 255.99 280.773 255.761 280.872 255.511C280.971 255.26 281.019 254.993 281.014 254.724C281.01 254.454 280.952 254.189 280.845 253.942C280.737 253.695 280.582 253.472 280.388 253.285C280.195 253.098 279.966 252.951 279.716 252.852C279.465 252.753 279.198 252.705 278.929 252.71L278.927 252.709Z" fill="#E98862"/>
<path d="M332.947 140.59C332.947 140.59 326.279 164.482 322.533 176.879C322.356 177.467 322.318 178.087 322.424 178.692C322.529 179.296 322.775 179.868 323.141 180.36C323.507 180.853 323.983 181.253 324.532 181.528C325.08 181.803 325.685 181.946 326.299 181.945H349.699C350.71 181.945 351.682 181.556 352.413 180.858C353.145 180.161 353.58 179.208 353.628 178.199L355.205 144.94L332.947 140.59Z" fill="#0F1011"/>
<path d="M368.809 193.734C368.809 193.734 362.002 190.134 363.505 171.609L349.448 169.016C349.448 169.016 351.042 185.622 343.937 190.901L368.809 193.734Z" fill="#E98862"/>
<g opacity="0.15">
<path d="M346.813 187.429L358.48 178.486L349.31 178.398C349.048 181.538 348.201 184.601 346.813 187.429Z" fill="black"/>
</g>
<path d="M371.473 164.421C370.505 170.041 367.443 175.366 362.486 177.185C357.085 179.335 351.239 180.13 345.46 179.501C330.073 178.254 333.085 143.267 340.384 136.465C347.683 129.664 369.124 133.948 371.742 145.311C373.096 151.188 372.394 159.075 371.473 164.421Z" fill="#E98862"/>
<path d="M349.458 160.112C348.754 160.112 348.183 159.541 348.183 158.837C348.183 158.133 348.754 157.562 349.458 157.562C350.162 157.562 350.732 158.133 350.732 158.837C350.732 159.541 350.162 160.112 349.458 160.112Z" fill="#0F1011"/>
<path d="M339.401 159.295C338.697 159.295 338.126 158.725 338.126 158.021C338.126 157.317 338.697 156.746 339.401 156.746C340.105 156.746 340.676 157.317 340.676 158.021C340.676 158.725 340.105 159.295 339.401 159.295Z" fill="#0F1011"/>
<path d="M337.19 155.307H337.197L340.576 155.261C340.735 155.259 340.887 155.194 340.998 155.08C341.109 154.966 341.17 154.813 341.168 154.654C341.166 154.495 341.101 154.344 340.987 154.233C340.873 154.122 340.72 154.061 340.561 154.063L337.184 154.108C337.025 154.109 336.873 154.173 336.762 154.287C336.65 154.4 336.588 154.552 336.589 154.711C336.59 154.87 336.654 155.022 336.767 155.134C336.88 155.245 337.033 155.307 337.192 155.306L337.19 155.307Z" fill="#0F1011"/>
<path d="M352.207 156.527C352.354 156.526 352.495 156.472 352.604 156.375C352.714 156.277 352.783 156.143 352.801 155.997C352.818 155.852 352.781 155.705 352.697 155.585C352.613 155.465 352.489 155.379 352.346 155.345L349.017 154.547C348.94 154.527 348.86 154.522 348.781 154.533C348.702 154.544 348.626 154.571 348.557 154.612C348.489 154.653 348.429 154.707 348.382 154.772C348.334 154.836 348.3 154.909 348.282 154.987C348.263 155.064 348.26 155.145 348.273 155.223C348.286 155.302 348.315 155.378 348.357 155.445C348.4 155.513 348.455 155.571 348.52 155.617C348.586 155.663 348.66 155.695 348.738 155.712L352.066 156.51C352.112 156.521 352.16 156.527 352.207 156.527Z" fill="#0F1011"/>
<path d="M348.878 168.875C348.878 168.875 344.173 169.375 340.873 168.227C340.873 168.227 340.902 171.325 344.625 171.627C348.349 171.93 348.878 168.875 348.878 168.875Z" fill="white"/>
<g opacity="0.15">
<path d="M343.807 165.914C343.912 165.914 344.014 165.876 344.094 165.807C344.173 165.738 344.226 165.643 344.241 165.539C344.257 165.435 344.234 165.328 344.178 165.239C344.122 165.15 344.036 165.084 343.935 165.053L341.343 164.262L343.153 160.222C343.179 160.169 343.194 160.112 343.197 160.053C343.2 159.994 343.191 159.935 343.171 159.88C343.151 159.824 343.12 159.773 343.08 159.73C343.04 159.687 342.991 159.652 342.938 159.628C342.884 159.604 342.826 159.591 342.767 159.59C342.708 159.589 342.65 159.599 342.595 159.621C342.54 159.643 342.49 159.676 342.448 159.717C342.406 159.758 342.373 159.808 342.351 159.862L340.133 164.812L343.678 165.898C343.72 165.909 343.763 165.914 343.807 165.914Z" fill="black"/>
</g>
<path d="M332.144 143.454C332.144 143.454 334.397 125.232 363.594 129.707C370.872 130.823 381.188 136.506 382.859 155.131C383.623 163.674 386.568 171.73 388.815 176.829C389.081 177.427 389.193 178.083 389.141 178.736C389.089 179.389 388.875 180.018 388.519 180.568C388.162 181.117 387.673 181.568 387.098 181.881C386.522 182.194 385.878 182.358 385.223 182.358L364.699 182.365C363.658 182.367 362.659 181.955 361.921 181.22C361.183 180.485 360.768 179.487 360.765 178.445C360.765 178.387 360.765 178.329 360.765 178.269C360.913 174.776 361.029 168.862 360.831 159.822C359.763 154.663 362.606 151.025 358.48 152.211C343.161 156.607 333.295 143.748 332.144 143.454Z" fill="#0F1011"/>
<path d="M355.9 164.323C355.843 165.03 355.925 165.742 356.143 166.417C356.361 167.093 356.709 167.719 357.169 168.26C357.629 168.8 358.19 169.245 358.822 169.569C359.453 169.893 360.142 170.089 360.85 170.146C361.557 170.203 362.269 170.121 362.944 169.903C363.62 169.685 364.246 169.337 364.787 168.877C365.879 167.949 366.557 166.625 366.673 165.196C366.81 163.794 366.385 162.395 365.491 161.306C364.596 160.217 363.306 159.528 361.904 159.39C361.844 159.385 361.784 159.38 361.724 159.376C357.872 159.252 356.142 161.351 355.9 164.323Z" fill="#E98862"/>
<path d="M55.1848 213.766L48.7139 214.752L56.2022 263.366L62.6731 262.381L55.1848 213.766Z" fill="#FAB623"/>
<path d="M55.179 213.792L48.7783 214.805L50.233 209.887L50.9604 207.283L52.4151 209.453L55.179 213.792Z" fill="#FF8C64"/>
<path d="M62.1613 258.921L55.6904 259.906L56.241 263.481L62.712 262.495L62.1613 258.921Z" fill="#35252F"/>
<path d="M62.7444 265.292L57.071 266.159C56.7801 266.159 56.6346 266.015 56.6346 265.725L56.1982 263.266L62.7444 262.254L63.1808 264.713C63.1808 265.002 63.0353 265.292 62.7444 265.292Z" fill="#EF452F"/>
<path d="M52.4145 209.453L50.2324 209.887L50.9598 207.283L52.4145 209.453Z" fill="#35252F"/>
<path d="M55.7068 259.905L62.1777 258.92L61.7813 256.346L55.3103 257.332L55.7068 259.905Z" fill="#F68407"/>
<path d="M50.6719 216.979L56.1999 252.996C56.1999 253.285 56.4909 253.43 56.7818 253.43C57.0728 253.43 57.2182 253.141 57.2182 252.851L51.6902 216.834C51.6902 216.545 51.3993 216.4 51.1083 216.4C50.8174 216.4 50.6719 216.69 50.6719 216.979Z" fill="#F68407"/>
<path d="M53.2871 216.54L58.815 252.557C58.815 252.846 59.1059 252.99 59.3969 252.99C59.6878 252.99 59.8333 252.701 59.8333 252.412L54.3054 216.395C54.3054 216.106 54.0144 215.961 53.7235 215.961C53.4326 215.961 53.2871 216.25 53.2871 216.54Z" fill="#F68407"/>
<path d="M66.8851 213.932L60.3389 213.953L60.5 263.133L67.0463 263.112L66.8851 213.932Z" fill="#4F9D5C"/>
<path d="M66.9623 213.943L60.416 214.088L62.5981 209.314L63.6164 207L64.7802 209.314L66.9623 213.943Z" fill="#FF8C64"/>
<path d="M67.1038 259.641L60.5576 259.662L60.5695 263.278L67.1156 263.257L67.1038 259.641Z" fill="#35252F"/>
<path d="M66.6733 266.012H60.9999C60.7089 266.012 60.5635 265.867 60.5635 265.578V263.119H67.1098V265.578C67.1098 265.867 66.9643 266.012 66.6733 266.012Z" fill="#EF452F"/>
<path d="M64.7819 209.316H62.5996L63.618 207.002L64.7819 209.316Z" fill="#35252F"/>
<path d="M60.5553 259.666L67.1016 259.645L67.093 257.041L60.5468 257.062L60.5553 259.666Z" fill="#3C7341"/>
<path d="M62.0156 216.401L62.1611 252.852C62.1611 253.141 62.4521 253.286 62.5976 253.286C62.8885 253.286 63.034 252.996 63.034 252.852L62.8885 216.401C62.8885 216.111 62.5975 215.967 62.4521 215.967C62.3066 215.967 62.0156 216.111 62.0156 216.401Z" fill="#3C7341"/>
<path d="M64.6357 216.403L64.7812 252.854C64.7812 253.143 65.0722 253.288 65.2176 253.288C65.5086 253.288 65.6541 252.998 65.6541 252.854L65.5086 216.403C65.5086 216.113 65.2176 215.969 65.0722 215.969C64.7812 215.969 64.6357 216.113 64.6357 216.403Z" fill="#3C7341"/>
<path d="M78.2871 214.681L71.8057 213.766L64.8466 262.459L71.328 263.374L78.2871 214.681Z" fill="#1B6BFE"/>
<path d="M78.3108 214.66L71.7646 213.792L74.5286 209.453L75.9833 207.283L76.8561 209.742L78.3108 214.66Z" fill="#FF8C64"/>
<path d="M71.8553 259.873L65.374 258.957L64.8623 262.537L71.3436 263.453L71.8553 259.873Z" fill="#35252F"/>
<path d="M70.4546 266.153L64.7812 265.286C64.4902 265.286 64.3447 264.996 64.3447 264.852L64.6357 262.393L71.1819 263.26L70.891 265.719C70.891 266.009 70.7455 266.153 70.4546 266.153Z" fill="#EF452F"/>
<path d="M76.856 209.742L74.5283 209.453L75.9831 207.283L76.856 209.742Z" fill="#35252F"/>
<path d="M65.3293 258.856L71.8105 259.771L72.179 257.194L65.6977 256.278L65.3293 258.856Z" fill="#1B48CA"/>
<path d="M73.0731 216.395L67.9814 252.412C67.9814 252.701 68.1269 252.99 68.4179 252.99C68.7088 252.99 68.9998 252.846 68.9998 252.557L74.0914 216.54C74.0914 216.25 73.946 215.961 73.655 215.961C73.3641 215.961 73.0731 216.106 73.0731 216.395Z" fill="#1B48CA"/>
<path d="M75.5464 216.836L70.4551 252.853C70.4551 253.142 70.6005 253.431 70.8915 253.431C71.1824 253.431 71.4734 253.287 71.4734 252.997L76.5647 216.98C76.5647 216.691 76.4192 216.402 76.1283 216.402C75.8373 216.257 75.6919 216.546 75.5464 216.836Z" fill="#1B48CA"/>
<path d="M80.4952 233.475L80.0588 236.078L79.7679 238.537L79.3315 242.153L79.0405 244.468L78.4586 248.229L78.1677 250.543L77.7313 254.159L77.4403 256.473L77.0039 260.234L76.7129 262.549L76.1311 266.309L75.8401 268.479L75.5492 270.504H49.8006L49.5096 268.479L49.2187 266.309L48.7823 262.549L48.4913 260.234L48.0549 256.473L47.764 254.159L47.1821 250.543L46.8911 248.229L46.4547 244.468L46.1638 242.153L45.7274 238.537L45.4364 236.078L45 233.475H80.4952Z" fill="#EF452F"/>
<path d="M80.055 236.076L79.764 238.535H45.7236L45.4326 236.076H80.055Z" fill="#AD2F24"/>
<path d="M79.3288 242.156L79.0379 244.471H46.4521L46.1611 242.156H79.3288Z" fill="#AD2F24"/>
<path d="M78.458 248.227L78.167 250.541H47.1816L46.8906 248.227H78.458Z" fill="#AD2F24"/>
<path d="M77.7279 254.154L77.4369 256.469H48.0517L47.7607 254.154H77.7279Z" fill="#AD2F24"/>
<path d="M77.0018 260.23L76.7109 262.545H48.7802L48.4893 260.23H77.0018Z" fill="#AD2F24"/>
<path d="M76.1271 266.309L75.8362 268.478H49.5058L49.2148 266.309H76.1271Z" fill="#AD2F24"/>
<path d="M499.788 394.532C495.011 392.157 489.437 391.761 484.262 392.684C481.475 393.212 478.556 394.004 476.565 396.115C474.708 398.226 474.31 401.921 476.433 403.768C477.76 404.824 479.617 404.956 481.343 404.956C485.456 404.956 489.968 404.164 493.286 406.671C495.143 408.122 496.47 410.365 498.594 411.157C500.849 411.817 503.238 410.497 504.432 408.518C505.627 406.539 505.627 404.032 505.096 401.921C505.229 401.789 504.565 396.907 499.788 394.532Z" fill="#3A974C"/>
<path d="M510.67 373.684C507.75 377.775 502.177 376.455 499.523 373.948C496.869 371.441 495.807 367.747 494.746 364.316C492.49 356.399 490.101 348.087 491.826 340.038C492.357 337.663 493.286 335.288 495.011 333.441C496.736 331.593 499.39 330.538 501.779 331.197C504.566 331.989 506.423 334.76 507.618 337.267C511.333 345.052 513.324 353.497 513.324 362.073C513.457 366.163 512.926 370.386 510.67 373.684Z" fill="#3A974C"/>
<path d="M518.63 379.623C515.445 375.928 514.914 370.518 516.241 365.9C517.701 361.282 520.753 357.324 524.469 354.025C528.715 350.199 533.758 347.296 539.198 345.448C541.322 344.657 543.578 344.129 545.833 344.393C548.089 344.657 550.345 345.712 551.407 347.692C552.999 350.594 551.407 354.157 549.814 357.06C547.028 362.206 543.71 367.088 540.127 371.706C537.208 375.4 533.89 379.095 529.511 380.678C525.132 382.394 520.488 382.13 518.232 379.095" fill="#3A974C"/>
<path d="M510.936 435.704C510.936 435.704 510.803 435.044 510.67 433.856C510.537 432.537 510.405 430.822 510.139 428.711C509.874 426.599 509.609 423.96 508.945 421.189C508.414 418.419 507.353 415.384 506.158 412.349C504.964 409.314 503.372 406.543 501.647 404.432C499.921 402.189 497.798 400.606 495.94 399.682C494.083 398.759 492.358 398.363 491.163 398.231C489.969 398.099 489.305 397.967 489.305 397.967C489.305 397.967 489.969 397.967 491.163 397.967C492.358 398.099 494.215 398.363 496.206 399.286C498.196 400.21 500.452 401.793 502.31 404.036C504.168 406.279 505.76 409.05 506.955 412.217C508.149 415.252 509.078 418.287 509.609 421.189C510.139 423.96 510.405 426.599 510.67 428.711C510.803 430.822 510.936 432.669 510.936 433.856C510.936 435.044 510.936 435.704 510.936 435.704Z" fill="#263238"/>
<path d="M510.537 431.737C510.537 431.737 510.537 431.473 510.537 430.813C510.537 430.154 510.537 429.362 510.537 428.306C510.537 426.195 510.537 423.028 510.405 419.202C510.272 411.549 509.609 403.236 508.282 391.625C507.087 380.673 505.495 367.875 503.77 359.562C503.372 357.715 502.974 355.999 502.708 354.548C502.31 353.096 502.045 351.777 501.779 350.721C501.514 349.798 501.381 349.006 501.248 348.346C501.116 347.819 501.116 347.555 501.116 347.555C501.116 347.555 501.248 347.819 501.381 348.346C501.514 349.006 501.779 349.798 502.045 350.721C502.31 351.777 502.708 352.965 503.106 354.548C503.504 355.999 503.902 357.715 504.301 359.562C506.026 367.083 507.751 377.639 509.078 389.25C510.405 400.993 510.936 411.549 510.936 419.334C510.936 423.16 510.936 426.327 510.803 428.438C510.803 429.494 510.67 430.286 510.67 430.945C510.537 431.473 510.537 431.737 510.537 431.737Z" fill="#263238"/>
<path d="M510.538 411.158C510.538 411.158 510.538 410.234 510.538 408.519C510.671 406.804 510.803 404.429 511.334 401.526C511.865 398.623 512.528 395.06 513.59 391.366C514.121 389.65 515.182 385.428 517.836 379.227C521.419 370.782 526.197 363.921 530.443 359.698C531.372 358.511 532.566 357.719 533.362 356.928C533.76 356.532 534.159 356.136 534.689 355.872C535.087 355.608 535.486 355.344 535.884 355.08C537.211 354.157 538.007 353.629 538.14 353.629C538.272 353.761 535.087 355.74 530.974 359.962C526.86 364.317 522.216 371.046 518.633 379.359C516.642 383.845 515.315 387.935 514.253 391.366C513.192 395.06 512.396 398.623 511.865 401.526C511.334 404.429 511.069 406.804 510.803 408.519C510.671 410.366 510.538 411.158 510.538 411.158Z" fill="#263238"/>
<path d="M530.441 447.441L528.318 475.546H491.958L489.835 447.441H530.441Z" fill="#FFD66B"/>
<path d="M485.456 436.357H533.892V447.441H485.456V436.357Z" fill="#FFD66B"/>
<path d="M528.703 480.848L530.835 475.57H489.698L492.081 480.848H528.703Z" fill="#FFD66B"/>
<path d="M490.632 456.54C490.632 456.54 490.632 456.672 490.765 456.803C490.897 456.935 491.03 457.199 491.296 457.463C491.826 458.123 492.49 459.047 493.419 460.102L493.551 460.234C494.878 458.387 496.603 456.012 498.727 453.109H498.461C500.054 455.352 501.779 457.727 503.637 460.366L503.769 460.63L503.902 460.366C505.76 458.123 507.883 455.748 510.006 453.109H509.608C509.741 453.241 509.873 453.373 510.006 453.505C511.864 455.88 513.722 458.123 515.447 460.234L515.58 460.498L515.712 460.234C517.57 457.595 519.295 455.22 520.888 452.977H520.622C523.143 455.88 525.267 458.255 526.992 460.102L527.124 460.234L527.257 460.102C528.053 458.651 528.717 457.595 529.248 456.803C529.513 456.408 529.646 456.144 529.778 455.88C529.911 455.616 529.911 455.616 529.911 455.616C529.911 455.616 529.778 455.748 529.646 455.88C529.513 456.144 529.248 456.408 529.115 456.672C528.584 457.463 527.921 458.519 526.992 459.97H527.124C525.532 458.123 523.409 455.616 520.888 452.713L520.755 452.581L520.622 452.713C519.03 454.956 517.305 457.331 515.447 459.838H515.845C514.12 457.727 512.262 455.352 510.404 453.109C510.272 452.977 510.139 452.845 510.006 452.713L509.873 452.449L509.741 452.713C507.618 455.22 505.627 457.727 503.637 459.97H504.035C502.177 457.331 500.452 454.956 498.859 452.845L498.727 452.581L498.594 452.845C496.603 455.748 494.746 458.255 493.551 460.102H493.684C492.755 459.047 491.959 458.123 491.428 457.463C491.163 457.199 491.03 456.935 490.897 456.803C490.632 456.672 490.632 456.54 490.632 456.54Z" fill="#030229"/>
<path d="M509.742 447.444C498.529 447.444 489.439 447.326 489.439 447.18C489.439 447.034 498.529 446.916 509.742 446.916C520.955 446.916 530.045 447.034 530.045 447.18C530.045 447.326 520.955 447.444 509.742 447.444Z" fill="#455A64"/>
</svg>
